# xmcd
#
# Track frame offsets: 
#        150
#        13394
#        26755
#        35358
#        48934
#        63535
#        76211
#        90589
#        104513
#        118164
#        143495
#        158096
#        174420
#        188663
#        196126
#        207527
#        222078
#        232154
#        246163
#        260184
#        272103
#        282021
#
# Disc length: 3872 seconds
#
# Revision: 3
# Processed by: cddbd v1.5.2PL0 Copyright (c) Steve Scherf et al.
# Submitted via: ExactAudioCopy v1.0b4
#
DISCID=410f1e16
DTITLE=Leadbelly - Death Letter Blues - CD2
DYEAR=1900
DGENRE=Blues
TTITLE0=Good Morning Blues
TTITLE1=Rock Island Line
TTITLE2=On Monday
TTITLE3=See See Raider
TTITLE4=Alberta
TTITLE5=Eagle Rock Rag
TTITLE6=Whoa Back Buck
TTITLE7=Pick A Ball Of Cotton
TTITLE8=Grey Goose
TTITLE9=Bourgois Blues
TTITLE10=Pigmeat
TTITLE11=Leaving Blues
TTITLE12=Shorty George
TTITLE13=Take This Hammer
TTITLE14=I Got A Pretty Flower
TTITLE15=Black Snake Moan
TTITLE16=Corn Bread Rough
TTITLE17=You Don't My Mind
TTITLE18=Alabama Bound
TTITLE19=Little Sally Walker
TTITLE20=Midnight Special
TTITLE21=Irene
EXTD=
EXTT0=
EXTT1=
EXTT2=
EXTT3=
EXTT4=
EXTT5=
EXTT6=
EXTT7=
EXTT8=
EXTT9=
EXTT10=
EXTT11=
EXTT12=
EXTT13=
EXTT14=
EXTT15=
EXTT16=
EXTT17=
EXTT18=
EXTT19=
EXTT20=
EXTT21=
PLAYORDER=
